<svg width="378" height="346" viewBox="0 0 378 346" fill="none" xmlns="http://www.w3.org/2000/svg">
<path d="M348.5 0L33 11L34.0221 51L37.2547 177.5L40.2956 296.5L40.3802 299.812L40.5 304.5C47.7922 304.5 55.1225 304.5 62.4706 304.496C62.7698 304.496 63.069 304.496 63.3682 304.496C66.4097 304.494 69.4541 304.491 72.5 304.488C184.176 304.364 297.832 302.941 342.5 286.674C346.599 285.181 350.118 283.563 353 281.81C353.169 281.707 353.336 281.604 353.5 281.5C353.916 267.067 354.217 253.299 354.413 240C354.59 227.999 354.681 216.38 354.695 205C354.758 153.224 353.216 106.392 350.809 51C350.107 34.8402 349.331 17.952 348.5 0Z" fill="#FDDC02"/>
<path d="M37.2547 177.5L34.0221 51L0 55.5L25.3773 233.75L37.2547 177.5Z" fill="#66DF0E"/>
<path d="M40.2956 296.5L37.2547 177.5L25.3773 233.75L13.5 290C16.2789 291.985 24.7316 294.916 33.5 296.039C35.7751 296.33 38.0715 296.5 40.2956 296.5Z" fill="#029DD1"/>
<path d="M377.5 56.5C373.5 53 358 55 350.809 51C353.216 106.392 354.758 153.224 354.695 205C363 176.5 369.5 110.5 377.5 56.5Z" fill="#29BFEE"/>
<path d="M40.2956 296.5C38.0715 296.5 35.7751 296.33 33.5 296.039L33.9434 298.5L40.3802 299.812L40.2956 296.5Z" fill="#49AB01"/>
<path d="M33.9434 298.5L42.5 346C88.9484 346 125.262 339.387 176.879 329.986C178.896 329.619 180.935 329.247 183 328.872L63.3682 304.496L62.4706 304.496C55.1225 304.5 47.7922 304.5 40.5 304.5L40.3802 299.812L33.9434 298.5Z" fill="#66DF0E"/>
<path d="M189 327.782C151.238 321.38 119.262 314.861 74.5 304.932C73.8362 304.785 73.1695 304.637 72.5 304.488C69.4541 304.491 66.4097 304.494 63.3682 304.496L183 328.872C184.977 328.512 186.976 328.149 189 327.782Z" fill="#49AB01"/>
<path d="M353 281.81C350.118 283.563 346.599 285.181 342.5 286.674C342.114 288.505 341.739 290.28 341.377 292L342.252 291.346C349.208 286.146 353.368 283.035 353 281.81Z" fill="#49AB01"/>
<path d="M339.146 302.5C349.878 301.275 355.16 300.078 362.5 296.5C360.321 272.056 358.325 260.233 354.413 240C354.217 253.299 353.916 267.067 353.5 281.5C353.336 281.604 353.169 281.707 353 281.81C353.368 283.035 349.208 286.146 342.252 291.346L341.377 292C340.583 295.76 339.844 299.255 339.146 302.5Z" fill="#66DF0E"/>
<path d="M342.5 286.674C297.832 302.941 184.176 304.364 72.5 304.488C73.1695 304.637 73.8362 304.785 74.5 304.932C180.001 310.799 299.5 304.496 341.377 292C341.739 290.28 342.114 288.505 342.5 286.674Z" fill="#07A4D6"/>
<path d="M247.5 337C264.5 340 317 339.5 331 333C333.579 327.246 335.908 317.57 339.146 302.5C339.844 299.255 340.583 295.76 341.377 292C299.5 304.496 180.001 310.799 74.5 304.932C119.262 314.861 151.238 321.38 189 327.782C206.613 330.769 225.485 333.73 247.5 337Z" fill="#29BFEE"/>
</svg>
